#N canvas 1272 -8 1366 726 10;
#X obj 203 24 hsl 128 15 0 359 0 0 empty empty Azimuth_(o) -2 -8 0
10 -262144 -1 -1 0 1;
#X obj 204 84 hsl 128 15 -40 90 0 0 empty empty Elevation_(o) -2 -8
0 10 -262144 -1 -1 0 1;
#X obj 202 141 hsl 128 15 20 160 0 0 empty empty Distance_(cm) -2 -8
0 10 -262144 -1 -1 0 1;
#X floatatom 199 160 5 0 0 0 - - -, f 5;
#X floatatom 201 102 5 0 0 0 - - -, f 5;
#X floatatom 200 43 5 0 0 0 - - -, f 5;
#X obj 340 55 r \$0-E;
#X obj 347 111 r \$0-D;
#X obj 337 1 r \$0-A;
#X obj 510 303 r \$0-Play_Loop;
#X obj 412 41 r \$0-Load;
#X obj 497 199 r \$0-Stop;
#X floatatom 234 197 5 0 0 0 - - -, f 5;
#X obj 122 213 *~;
#X obj 234 172 r \$0-Mic;
#X obj 235 221 r \$0-Vol;
#X obj 179 289 *~;
#X floatatom 235 276 5 0 0 0 - - -, f 5;
#X obj 122 289 *~, f 4;
#X obj 121 159 r~ in1;
#X obj 122 182 r~ in2;
#X obj 121 320 throw~ out1, f 12;
#X obj 179 339 throw~ out2;
#X obj 122 255 hrir~ 256;
#N canvas 0 50 450 300 sub-array 0;
#X restore 32 84 pd sub-array;
#X obj 32 66 s pd-sub-array;
#X obj 412 119 soundfiler;
#X floatatom 413 142 12 0 0 0 - - -, f 12;
#X obj 535 119 r \$0-Sample;
#X floatatom 535 144 9 0 0 0 - - -, f 9;
#X msg 497 222 0 0;
#X obj 413 165 expr ($f1/$f2)*1000;
#X floatatom 498 182 12 0 0 0 - - -, f 12;
#X msg 413 213 0 \, \$1 \$2;
#X obj 413 236 line~;
#X obj 460 243 line;
#X obj 459 309 sel 1;
#X obj 459 332 spigot;
#X floatatom 459 265 12 0 0 0 - - -, f 12;
#X floatatom 510 321 5 0 0 0 - - -, f 5;
#X obj 459 288 expr $f1 == $f2 && $f1!=0;
#X msg 32 45 obj 20 50 table array\$1;
#X floatatom 32 22 5 0 0 0 - - -, f 5;
#X msg 412 102 read -resize \$1 array\$2;
#X msg 334 300 set array\$1;
#X obj 413 352 tabread4~;
#X obj 412 84 pack s f;
#X obj 414 192 pack f f;
#X symbolatom 412 62 10 0 0 0 - - -, f 10;
#X msg -43 135 \; array\$1 const 0 -resize 0;
#X obj 32 1 r \$0-Dollar;
#X obj 509 340 spigot;
#X floatatom -43 109 5 0 0 0 - - -, f 5;
#X obj 569 321 r \$0-Play;
#X floatatom 569 341 5 0 0 0 - - -, f 5;
#X obj -42 84 r \$0-Stop;
#X connect 0 0 5 0;
#X connect 1 0 4 0;
#X connect 2 0 3 0;
#X connect 3 0 23 3;
#X connect 4 0 23 2;
#X connect 5 0 23 1;
#X connect 6 0 1 0;
#X connect 7 0 2 0;
#X connect 8 0 0 0;
#X connect 9 0 39 0;
#X connect 10 0 48 0;
#X connect 11 0 30 0;
#X connect 12 0 13 1;
#X connect 13 0 23 0;
#X connect 14 0 12 0;
#X connect 15 0 17 0;
#X connect 16 0 22 0;
#X connect 17 0 16 1;
#X connect 17 0 18 1;
#X connect 18 0 21 0;
#X connect 19 0 13 0;
#X connect 20 0 13 0;
#X connect 23 0 18 0;
#X connect 23 1 16 0;
#X connect 26 0 27 0;
#X connect 27 0 31 0;
#X connect 27 0 40 1;
#X connect 27 0 47 0;
#X connect 28 0 29 0;
#X connect 29 0 31 1;
#X connect 30 0 34 0;
#X connect 30 0 35 0;
#X connect 31 0 32 0;
#X connect 32 0 47 1;
#X connect 33 0 34 0;
#X connect 33 0 35 0;
#X connect 34 0 45 0;
#X connect 35 0 38 0;
#X connect 36 0 37 0;
#X connect 36 0 51 0;
#X connect 37 0 27 0;
#X connect 38 0 40 0;
#X connect 39 0 37 1;
#X connect 40 0 36 0;
#X connect 41 0 25 0;
#X connect 42 0 41 0;
#X connect 42 0 44 0;
#X connect 42 0 46 1;
#X connect 43 0 26 0;
#X connect 44 0 45 0;
#X connect 45 0 23 0;
#X connect 46 0 43 0;
#X connect 47 0 33 0;
#X connect 48 0 46 0;
#X connect 50 0 42 0;
#X connect 50 0 52 0;
#X connect 51 0 30 0;
#X connect 51 0 52 0;
#X connect 52 0 49 0;
#X connect 53 0 54 0;
#X connect 54 0 51 1;
#X connect 55 0 52 0;
