#N canvas 487 212 450 300 10;
#X obj 163 180 throw~ out1;
#X obj 297 112 delwrite~ \$0-a 100;
#X obj 136 64 delread~ \$0-a 100;
#X obj 224 105 line~;
#X obj 311 36 metro 100;
#X msg 271 43 1;
#X obj 260 14 loadbang;
#X obj 206 145 *~;
#X obj 182 106 noise~;
#X msg 315 68 10 \, 0 10;
#X connect 2 0 0 0;
#X connect 3 0 7 1;
#X connect 4 0 9 0;
#X connect 5 0 4 0;
#X connect 6 0 5 0;
#X connect 7 0 1 0;
#X connect 7 0 0 0;
#X connect 8 0 7 0;
#X connect 9 0 3 0;
