#N canvas 603 210 582 546 10;
#X obj 203 24 hsl 128 15 0 359 0 0 empty empty Azimuth_(o) -2 -8 0
10 -262144 -1 -1 0 1;
#X obj 204 84 hsl 128 15 -40 90 0 0 empty empty Elevation_(o) -2 -8
0 10 -262144 -1 -1 0 1;
#X obj 202 141 hsl 128 15 20 160 0 0 empty empty Distance_(cm) -2 -8
0 10 -262144 -1 -1 0 1;
#X floatatom 199 160 5 0 0 0 - - -;
#X floatatom 201 102 5 0 0 0 - - -;
#X floatatom 200 43 5 0 0 0 - - -;
#X obj 340 55 r \$0-E;
#X obj 347 111 r \$0-D;
#X obj 337 1 r \$0-A;
#X obj 46 44 r \$0-Play;
#X obj 46 155 readsf~;
#X obj 98 307 throw~ out1;
#X obj 234 309 throw~ out2;
#X msg 131 93 0;
#X obj 366 269 readsf~;
#X msg 464 206 0;
#X obj 367 141 r \$0-Play_Loop;
#X obj 122 255 hrir~ 10;
#X msg 366 236 open \$1 \, 1;
#X msg 46 135 open \$1 \, 1;
#X obj 367 164 r \$0-Load;
#X msg 366 210 makefile \$1;
#X msg 366 188;
#X obj 46 69 r \$0-Load;
#X msg 46 114 makefile \$1;
#X msg 46 92;
#X obj 464 169 r \$0-Stop;
#X obj 131 62 r \$0-Stop;
#X obj 108 191 noise~;
#X connect 0 0 5 0;
#X connect 1 0 4 0;
#X connect 2 0 3 0;
#X connect 3 0 17 3;
#X connect 4 0 17 2;
#X connect 5 0 17 1;
#X connect 6 0 1 0;
#X connect 7 0 2 0;
#X connect 8 0 0 0;
#X connect 9 0 25 0;
#X connect 10 0 17 0;
#X connect 13 0 10 0;
#X connect 14 0 17 0;
#X connect 14 1 22 0;
#X connect 15 0 14 0;
#X connect 16 0 22 0;
#X connect 17 0 11 0;
#X connect 17 1 12 0;
#X connect 18 0 14 0;
#X connect 19 0 10 0;
#X connect 20 0 22 0;
#X connect 21 0 18 0;
#X connect 22 0 21 0;
#X connect 23 0 25 0;
#X connect 24 0 19 0;
#X connect 25 0 24 0;
#X connect 26 0 15 0;
#X connect 27 0 13 0;
