#N canvas 630 351 582 546 10;
#X obj 203 24 hsl 128 15 0 359 0 0 empty empty Azimuth_(o) -2 -8 0
10 -262144 -1 -1 0 1;
#X obj 204 84 hsl 128 15 -40 90 0 0 empty empty Elevation_(o) -2 -8
0 10 -262144 -1 -1 0 1;
#X obj 202 141 hsl 128 15 20 160 0 0 empty empty Distance_(cm) -2 -8
0 10 -262144 -1 -1 0 1;
#X floatatom 199 160 5 0 0 0 - - -, f 5;
#X floatatom 201 102 5 0 0 0 - - -, f 5;
#X floatatom 200 43 5 0 0 0 - - -, f 5;
#X obj 340 55 r \$0-E;
#X obj 347 111 r \$0-D;
#X obj 337 1 r \$0-A;
#X obj 46 44 r \$0-Play;
#X obj 46 155 readsf~;
#X msg 131 93 0;
#X obj 366 265 readsf~;
#X msg 464 206 0;
#X obj 367 141 r \$0-Play_Loop;
#X msg 366 236 open \$1 \, 1;
#X msg 46 135 open \$1 \, 1;
#X obj 367 164 r \$0-Load;
#X msg 366 210 makefile \$1;
#X obj 46 69 r \$0-Load;
#X msg 46 114 makefile \$1;
#X obj 464 169 r \$0-Stop;
#X obj 131 62 r \$0-Stop;
#X floatatom 234 197 5 0 0 0 - - -, f 5;
#X obj 122 213 *~;
#X obj 234 172 r \$0-Mic;
#X symbolatom 46 93 10 0 0 0 - - -, f 10;
#X symbolatom 366 186 10 0 0 0 - - -, f 10;
#X obj 26 229 noise~;
#X obj 122 162 r~ in1;
#X obj 122 181 r~ in2;
#X obj 122 309 throw~ out3;
#X obj 173 334 throw~ out4;
#X obj 122 255 hrir~ 124;
#X connect 0 0 5 0;
#X connect 1 0 4 0;
#X connect 2 0 3 0;
#X connect 3 0 33 3;
#X connect 4 0 33 2;
#X connect 5 0 33 1;
#X connect 6 0 1 0;
#X connect 7 0 2 0;
#X connect 8 0 0 0;
#X connect 9 0 26 0;
#X connect 10 0 33 0;
#X connect 11 0 10 0;
#X connect 12 0 33 0;
#X connect 12 1 27 0;
#X connect 13 0 12 0;
#X connect 14 0 27 0;
#X connect 15 0 12 0;
#X connect 16 0 10 0;
#X connect 17 0 27 0;
#X connect 18 0 15 0;
#X connect 19 0 26 0;
#X connect 20 0 16 0;
#X connect 21 0 13 0;
#X connect 22 0 11 0;
#X connect 23 0 24 1;
#X connect 24 0 33 0;
#X connect 25 0 23 0;
#X connect 26 0 20 0;
#X connect 27 0 18 0;
#X connect 29 0 24 0;
#X connect 30 0 24 0;
#X connect 33 0 31 0;
#X connect 33 1 32 0;
