#N canvas 59 188 693 485 10;
#X obj 44 98 catch~ out1;
#X obj 61 120 catch~ out2;
#X obj 78 141 catch~ out3;
#X obj 95 162 catch~ out4;
#X obj 112 182 catch~ out5;
#X obj 129 202 catch~ out6;
#X obj 146 223 catch~ out7;
#X obj 163 245 catch~ out8;
#X obj 44 449 dac~ 1 2 3 4 5 6 7 8 9 10 11 12 13 14 15 16;
#X obj 180 262 catch~ out9;
#X obj 197 285 catch~ out10;
#X obj 214 303 catch~ out11;
#X obj 231 324 catch~ out12;
#X obj 248 347 catch~ out13;
#X obj 265 367 catch~ out14;
#X obj 282 393 catch~ out15;
#X obj 299 413 catch~ out16;
#X obj 248 58 adc~ 1 2 3 4 5 6 7 8 9 10 11 12 13 14 15 16;
#X obj 248 83 s~ in1;
#X obj 265 102 s~ in2;
#X obj 282 121 s~ in3;
#X obj 299 143 s~ in4;
#X obj 316 165 s~ in5;
#X obj 333 186 s~ in6;
#X obj 350 208 s~ in7;
#X obj 367 231 s~ in8;
#X obj 384 252 s~ in9;
#X obj 401 274 s~ in10;
#X obj 418 297 s~ in11;
#X obj 435 319 s~ in12;
#X obj 452 342 s~ in13;
#X obj 469 365 s~ in14;
#X obj 486 386 s~ in15;
#X obj 503 406 s~ in16;
#X connect 0 0 8 0;
#X connect 1 0 8 1;
#X connect 2 0 8 2;
#X connect 3 0 8 3;
#X connect 4 0 8 4;
#X connect 5 0 8 5;
#X connect 6 0 8 6;
#X connect 7 0 8 7;
#X connect 9 0 8 8;
#X connect 10 0 8 9;
#X connect 11 0 8 10;
#X connect 12 0 8 11;
#X connect 13 0 8 12;
#X connect 14 0 8 13;
#X connect 15 0 8 14;
#X connect 16 0 8 15;
#X connect 17 0 18 0;
#X connect 17 1 19 0;
#X connect 17 2 20 0;
#X connect 17 3 21 0;
#X connect 17 4 22 0;
#X connect 17 5 23 0;
#X connect 17 6 24 0;
#X connect 17 7 25 0;
#X connect 17 8 26 0;
#X connect 17 9 27 0;
#X connect 17 10 28 0;
#X connect 17 11 29 0;
#X connect 17 12 30 0;
#X connect 17 13 31 0;
#X connect 17 14 32 0;
#X connect 17 15 33 0;
