#N canvas 165 132 693 485 10;
#X obj 45 98 catch~ out1;
#X obj 45 119 catch~ out2;
#X obj 77 140 catch~ out3;
#X obj 77 161 catch~ out4;
#X obj 110 181 catch~ out5;
#X obj 110 202 catch~ out6;
#X obj 142 223 catch~ out7;
#X obj 142 244 catch~ out8;
#X obj 44 449 dac~ 1 2 3 4 5 6 7 8 9 10 11 12 13 14 15 16;
#X obj 176 262 catch~ out9;
#X obj 176 283 catch~ out10;
#X obj 209 304 catch~ out11;
#X obj 209 325 catch~ out12;
#X obj 242 347 catch~ out13;
#X obj 242 368 catch~ out14;
#X obj 275 392 catch~ out15;
#X obj 300 414 catch~ out16;
#X connect 0 0 8 0;
#X connect 1 0 8 1;
#X connect 2 0 8 2;
#X connect 3 0 8 3;
#X connect 4 0 8 4;
#X connect 5 0 8 5;
#X connect 6 0 8 6;
#X connect 7 0 8 7;
#X connect 9 0 8 8;
#X connect 10 0 8 9;
#X connect 11 0 8 10;
#X connect 12 0 8 11;
#X connect 13 0 8 12;
#X connect 14 0 8 13;
#X connect 15 0 8 14;
#X connect 16 0 8 15;
