#N canvas 808 225 450 300 10;
#X obj 193 108 osc~ 582;
#X obj 259 76 loadbang;
#X msg 263 108 1;
#X obj 282 127 metro 1000;
#X obj 300 148 random 500;
#X obj 295 168 + 100;
#X obj 182 217 dac~ 2;
#X connect 0 0 6 0;
#X connect 1 0 2 0;
#X connect 2 0 3 0;
#X connect 3 0 4 0;
#X connect 4 0 5 0;
#X connect 5 0 0 0;
