#N canvas 605 221 450 300 10;
#X obj 173 88 osc~ 582;
#X obj 262 107 metro 1000;
#X obj 280 128 random 500;
#X obj 275 148 + 100;
#X obj 162 197 throw~ out1;
#X obj 266 192 throw~ out2;
#X obj 123 42 r \$0-Play;
#X obj 46 78 r \$0-Stop;
#X msg 131 73 1;
#X msg 91 111 0;
#X obj 189 144 *~;
#X connect 0 0 10 0;
#X connect 1 0 2 0;
#X connect 2 0 3 0;
#X connect 3 0 0 0;
#X connect 6 0 8 0;
#X connect 7 0 9 0;
#X connect 8 0 1 0;
#X connect 8 0 10 1;
#X connect 9 0 1 0;
#X connect 9 0 10 1;
#X connect 10 0 4 0;
#X connect 10 0 5 0;
