#N canvas -892 362 450 300 10;
#X obj 84 169 dac~;
#X obj 105 127 catch~ out2;
#X obj 84 106 catch~ out1;
#X obj 236 104 adc~;
#X obj 236 149 s~ in1;
#X obj 257 174 s~ in2;
#X connect 1 0 0 1;
#X connect 2 0 0 0;
#X connect 3 0 4 0;
#X connect 3 1 5 0;
